<?xml version="1.0" encoding="UTF-8" standalone="no"?>
<svg width="284.339mm" height="171.45mm"
 viewBox="0 0 806 486"
 xmlns="http://www.w3.org/2000/svg" xmlns:xlink="http://www.w3.org/1999/xlink"  version="1.2" baseProfile="tiny">
<title>Qt SVG Document</title>
<desc>MATLAB, The MathWorks, Inc. Version 25.1.0.2943329 R2025a</desc>
<defs>
</defs>
<g fill="none" stroke="black" stroke-width="1" fill-rule="evenodd" stroke-linecap="square" stroke-linejoin="bevel" >

<g fill="#ffffff" fill-opacity="1" stroke="none" transform="matrix(0.75,0,0,0.75,0,0)"
font-family="PMingLiU" font-size="9" font-weight="400" font-style="normal" 
>
<path vector-effect="none" fill-rule="evenodd" d="M0,0 L1075,0 L1075,648 L0,648 L0,0"/>
</g>

<g fill="#ffffff" fill-opacity="1" stroke="none" transform="matrix(7.5e-05,0,0,7.5e-05,0,0)"
font-family="PMingLiU" font-size="9" font-weight="400" font-style="normal" 
>
<path vector-effect="none" fill-rule="evenodd" d="M1.61e+06,780000 L1.61e+06,5.95e+06 L9.13e+06,5.95e+06 L9.13e+06,780000 L1.61e+06,780000"/>
</g>

<g fill="#212121" fill-opacity="1" stroke="#212121" stroke-opacity="1" stroke-width="0.666667" stroke-linecap="square" stroke-linejoin="round" transform="matrix(0.75,0,0,0.75,0,0)"
font-family="PMingLiU" font-size="9" font-weight="400" font-style="normal" 
>
<polyline fill="none" vector-effect="none" points="161,595 913,595 " />
<polyline fill="none" vector-effect="none" points="253.425,595 253.425,587.48 " />
<polyline fill="none" vector-effect="none" points="442.475,595 442.475,587.48 " />
<polyline fill="none" vector-effect="none" points="631.525,595 631.525,587.48 " />
<polyline fill="none" vector-effect="none" points="820.575,595 820.575,587.48 " />
</g>

<g fill="#212121" fill-opacity="1" stroke="#212121" stroke-opacity="1" stroke-width="1" stroke-linecap="square" stroke-linejoin="bevel" transform="matrix(0.75,0,0,0.75,176.193,463.8)"
font-family="Times New Roman" font-size="18" font-weight="400" font-style="normal" 
>
<text fill="#212121" fill-opacity="1" stroke="none" xml:space="preserve" x="0" y="0" font-family="Times New Roman" font-size="18" font-weight="400" font-style="normal" 
 >MSE</text>
</g>

<g fill="#212121" fill-opacity="1" stroke="#212121" stroke-opacity="1" stroke-width="1" stroke-linecap="square" stroke-linejoin="bevel" transform="matrix(0.75,0,0,0.75,313.481,463.8)"
font-family="Times New Roman" font-size="18" font-weight="400" font-style="normal" 
>
<text fill="#212121" fill-opacity="1" stroke="none" xml:space="preserve" x="0" y="0" font-family="Times New Roman" font-size="18" font-weight="400" font-style="normal" 
 >RMSE</text>
</g>

<g fill="#212121" fill-opacity="1" stroke="#212121" stroke-opacity="1" stroke-width="1" stroke-linecap="square" stroke-linejoin="bevel" transform="matrix(0.75,0,0,0.75,458.644,463.8)"
font-family="Times New Roman" font-size="18" font-weight="400" font-style="normal" 
>
<text fill="#212121" fill-opacity="1" stroke="none" xml:space="preserve" x="0" y="0" font-family="Times New Roman" font-size="18" font-weight="400" font-style="normal" 
 >MAE</text>
</g>

<g fill="#212121" fill-opacity="1" stroke="#212121" stroke-opacity="1" stroke-width="1" stroke-linecap="square" stroke-linejoin="bevel" transform="matrix(0.75,0,0,0.75,596.682,463.8)"
font-family="Times New Roman" font-size="18" font-weight="400" font-style="normal" 
>
<text fill="#212121" fill-opacity="1" stroke="none" xml:space="preserve" x="0" y="0" font-family="Times New Roman" font-size="18" font-weight="400" font-style="normal" 
 >MAPE</text>
</g>

<g fill="#0072bd" fill-opacity="1" stroke="#0072bd" stroke-opacity="1" stroke-width="1" stroke-linecap="square" stroke-linejoin="bevel" transform="matrix(0,-0.75,0.75,0,73.2,267.75)"
font-family="Times New Roman" font-size="20" font-weight="400" font-style="normal" 
>
<text fill="#0072bd" fill-opacity="1" stroke="none" xml:space="preserve" x="0" y="0" font-family="Times New Roman" font-size="20" font-weight="400" font-style="normal" 
 >MSE</text>
</g>

<g fill="#1171be" fill-opacity="1" stroke="#1171be" stroke-opacity="1" stroke-width="0.666667" stroke-linecap="square" stroke-linejoin="round" transform="matrix(0.75,0,0,0.75,0,0)"
font-family="Times New Roman" font-size="20" font-weight="400" font-style="normal" 
>
<polyline fill="none" vector-effect="none" points="161,595 161,78 " />
<polyline fill="none" vector-effect="none" points="161,595 168.52,595 " />
<polyline fill="none" vector-effect="none" points="161,515.462 168.52,515.462 " />
<polyline fill="none" vector-effect="none" points="161,435.923 168.52,435.923 " />
<polyline fill="none" vector-effect="none" points="161,356.385 168.52,356.385 " />
<polyline fill="none" vector-effect="none" points="161,276.846 168.52,276.846 " />
<polyline fill="none" vector-effect="none" points="161,197.308 168.52,197.308 " />
<polyline fill="none" vector-effect="none" points="161,117.769 168.52,117.769 " />
</g>

<g fill="#1171be" fill-opacity="1" stroke="#1171be" stroke-opacity="1" stroke-width="1" stroke-linecap="square" stroke-linejoin="bevel" transform="matrix(0.75,0,0,0.75,109.2,451.125)"
font-family="Times New Roman" font-size="18" font-weight="400" font-style="normal" 
>
<text fill="#1171be" fill-opacity="1" stroke="none" xml:space="preserve" x="0" y="0" font-family="Times New Roman" font-size="18" font-weight="400" font-style="normal" 
 >0</text>
</g>

<g fill="#1171be" fill-opacity="1" stroke="#1171be" stroke-opacity="1" stroke-width="1" stroke-linecap="square" stroke-linejoin="bevel" transform="matrix(0.75,0,0,0.75,88.95,391.471)"
font-family="Times New Roman" font-size="18" font-weight="400" font-style="normal" 
>
<text fill="#1171be" fill-opacity="1" stroke="none" xml:space="preserve" x="0" y="0" font-family="Times New Roman" font-size="18" font-weight="400" font-style="normal" 
 >2000</text>
</g>

<g fill="#1171be" fill-opacity="1" stroke="#1171be" stroke-opacity="1" stroke-width="1" stroke-linecap="square" stroke-linejoin="bevel" transform="matrix(0.75,0,0,0.75,88.95,331.817)"
font-family="Times New Roman" font-size="18" font-weight="400" font-style="normal" 
>
<text fill="#1171be" fill-opacity="1" stroke="none" xml:space="preserve" x="0" y="0" font-family="Times New Roman" font-size="18" font-weight="400" font-style="normal" 
 >4000</text>
</g>

<g fill="#1171be" fill-opacity="1" stroke="#1171be" stroke-opacity="1" stroke-width="1" stroke-linecap="square" stroke-linejoin="bevel" transform="matrix(0.75,0,0,0.75,88.95,272.163)"
font-family="Times New Roman" font-size="18" font-weight="400" font-style="normal" 
>
<text fill="#1171be" fill-opacity="1" stroke="none" xml:space="preserve" x="0" y="0" font-family="Times New Roman" font-size="18" font-weight="400" font-style="normal" 
 >6000</text>
</g>

<g fill="#1171be" fill-opacity="1" stroke="#1171be" stroke-opacity="1" stroke-width="1" stroke-linecap="square" stroke-linejoin="bevel" transform="matrix(0.75,0,0,0.75,88.95,212.51)"
font-family="Times New Roman" font-size="18" font-weight="400" font-style="normal" 
>
<text fill="#1171be" fill-opacity="1" stroke="none" xml:space="preserve" x="0" y="0" font-family="Times New Roman" font-size="18" font-weight="400" font-style="normal" 
 >8000</text>
</g>

<g fill="#1171be" fill-opacity="1" stroke="#1171be" stroke-opacity="1" stroke-width="1" stroke-linecap="square" stroke-linejoin="bevel" transform="matrix(0.75,0,0,0.75,82.2,152.856)"
font-family="Times New Roman" font-size="18" font-weight="400" font-style="normal" 
>
<text fill="#1171be" fill-opacity="1" stroke="none" xml:space="preserve" x="0" y="0" font-family="Times New Roman" font-size="18" font-weight="400" font-style="normal" 
 >10000</text>
</g>

<g fill="#1171be" fill-opacity="1" stroke="#1171be" stroke-opacity="1" stroke-width="1" stroke-linecap="square" stroke-linejoin="bevel" transform="matrix(0.75,0,0,0.75,82.2,93.2019)"
font-family="Times New Roman" font-size="18" font-weight="400" font-style="normal" 
>
<text fill="#1171be" fill-opacity="1" stroke="none" xml:space="preserve" x="0" y="0" font-family="Times New Roman" font-size="18" font-weight="400" font-style="normal" 
 >12000</text>
</g>

<g fill="#d95319" fill-opacity="1" stroke="#d95319" stroke-opacity="1" stroke-width="1" stroke-linecap="square" stroke-linejoin="bevel" transform="matrix(0,-0.75,0.75,0,727.8,317.25)"
font-family="Times New Roman" font-size="20" font-weight="400" font-style="normal" 
>
<text fill="#d95319" fill-opacity="1" stroke="none" xml:space="preserve" x="0" y="0" font-family="Times New Roman" font-size="20" font-weight="400" font-style="normal" 
 >RMSE, MAE, MAPE</text>
</g>

<g fill="#dd5400" fill-opacity="1" stroke="#dd5400" stroke-opacity="1" stroke-width="0.666667" stroke-linecap="square" stroke-linejoin="round" transform="matrix(0.75,0,0,0.75,0,0)"
font-family="Times New Roman" font-size="20" font-weight="400" font-style="normal" 
>
<polyline fill="none" vector-effect="none" points="913,595 913,78 " />
<polyline fill="none" vector-effect="none" points="913,595 905.48,595 " />
<polyline fill="none" vector-effect="none" points="913,508.833 905.48,508.833 " />
<polyline fill="none" vector-effect="none" points="913,422.667 905.48,422.667 " />
<polyline fill="none" vector-effect="none" points="913,336.5 905.48,336.5 " />
<polyline fill="none" vector-effect="none" points="913,250.333 905.48,250.333 " />
<polyline fill="none" vector-effect="none" points="913,164.167 905.48,164.167 " />
<polyline fill="none" vector-effect="none" points="913,78 905.48,78 " />
</g>

<g fill="#dd5400" fill-opacity="1" stroke="#dd5400" stroke-opacity="1" stroke-width="1" stroke-linecap="square" stroke-linejoin="bevel" transform="matrix(0.75,0,0,0.75,689.55,451.125)"
font-family="Times New Roman" font-size="18" font-weight="400" font-style="normal" 
>
<text fill="#dd5400" fill-opacity="1" stroke="none" xml:space="preserve" x="0" y="0" font-family="Times New Roman" font-size="18" font-weight="400" font-style="normal" 
 >0</text>
</g>

<g fill="#dd5400" fill-opacity="1" stroke="#dd5400" stroke-opacity="1" stroke-width="1" stroke-linecap="square" stroke-linejoin="bevel" transform="matrix(0.75,0,0,0.75,689.55,386.5)"
font-family="Times New Roman" font-size="18" font-weight="400" font-style="normal" 
>
<text fill="#dd5400" fill-opacity="1" stroke="none" xml:space="preserve" x="0" y="0" font-family="Times New Roman" font-size="18" font-weight="400" font-style="normal" 
 >20</text>
</g>

<g fill="#dd5400" fill-opacity="1" stroke="#dd5400" stroke-opacity="1" stroke-width="1" stroke-linecap="square" stroke-linejoin="bevel" transform="matrix(0.75,0,0,0.75,689.55,321.875)"
font-family="Times New Roman" font-size="18" font-weight="400" font-style="normal" 
>
<text fill="#dd5400" fill-opacity="1" stroke="none" xml:space="preserve" x="0" y="0" font-family="Times New Roman" font-size="18" font-weight="400" font-style="normal" 
 >40</text>
</g>

<g fill="#dd5400" fill-opacity="1" stroke="#dd5400" stroke-opacity="1" stroke-width="1" stroke-linecap="square" stroke-linejoin="bevel" transform="matrix(0.75,0,0,0.75,689.55,257.25)"
font-family="Times New Roman" font-size="18" font-weight="400" font-style="normal" 
>
<text fill="#dd5400" fill-opacity="1" stroke="none" xml:space="preserve" x="0" y="0" font-family="Times New Roman" font-size="18" font-weight="400" font-style="normal" 
 >60</text>
</g>

<g fill="#dd5400" fill-opacity="1" stroke="#dd5400" stroke-opacity="1" stroke-width="1" stroke-linecap="square" stroke-linejoin="bevel" transform="matrix(0.75,0,0,0.75,689.55,192.625)"
font-family="Times New Roman" font-size="18" font-weight="400" font-style="normal" 
>
<text fill="#dd5400" fill-opacity="1" stroke="none" xml:space="preserve" x="0" y="0" font-family="Times New Roman" font-size="18" font-weight="400" font-style="normal" 
 >80</text>
</g>

<g fill="#dd5400" fill-opacity="1" stroke="#dd5400" stroke-opacity="1" stroke-width="1" stroke-linecap="square" stroke-linejoin="bevel" transform="matrix(0.75,0,0,0.75,689.55,128)"
font-family="Times New Roman" font-size="18" font-weight="400" font-style="normal" 
>
<text fill="#dd5400" fill-opacity="1" stroke="none" xml:space="preserve" x="0" y="0" font-family="Times New Roman" font-size="18" font-weight="400" font-style="normal" 
 >100</text>
</g>

<g fill="#dd5400" fill-opacity="1" stroke="#dd5400" stroke-opacity="1" stroke-width="1" stroke-linecap="square" stroke-linejoin="bevel" transform="matrix(0.75,0,0,0.75,689.55,63.375)"
font-family="Times New Roman" font-size="18" font-weight="400" font-style="normal" 
>
<text fill="#dd5400" fill-opacity="1" stroke="none" xml:space="preserve" x="0" y="0" font-family="Times New Roman" font-size="18" font-weight="400" font-style="normal" 
 >120</text>
</g>

<g fill="#1171be" fill-opacity="1" stroke="#1171be" stroke-opacity="1" stroke-width="0.666667" stroke-linecap="butt" stroke-linejoin="round" transform="matrix(0.75,0,0,0.75,0,0)"
font-family="Times New Roman" font-size="18" font-weight="400" font-style="normal" 
>
<polyline fill="none" vector-effect="none" points="161,595 913,595 " />
</g>

<g fill="#0000ff" fill-opacity="1" stroke="none" transform="matrix(7.5e-05,0,0,7.5e-05,0,0)"
font-family="Times New Roman" font-size="18" font-weight="400" font-style="normal" 
>
<path vector-effect="none" fill-rule="evenodd" d="M1.94609e+06,5.62745e+06 L1.94609e+06,5.95e+06 L2.28218e+06,5.95e+06 L2.28218e+06,5.62745e+06 L1.94609e+06,5.62745e+06"/>
</g>

<g fill="none" stroke="#212121" stroke-opacity="1" stroke-width="0.666667" stroke-linecap="butt" stroke-linejoin="miter" stroke-miterlimit="2" transform="matrix(0.75,0,0,0.75,0,0)"
font-family="Times New Roman" font-size="18" font-weight="400" font-style="normal" 
>
<polyline fill="none" vector-effect="none" points="194.609,595 194.609,562.745 228.218,562.745 228.218,595 " />
</g>

<g fill="#00ffff" fill-opacity="1" stroke="none" transform="matrix(7.5e-05,0,0,7.5e-05,0,0)"
font-family="Times New Roman" font-size="18" font-weight="400" font-style="normal" 
>
<path vector-effect="none" fill-rule="evenodd" d="M2.3662e+06,5.7316e+06 L2.3662e+06,5.95e+06 L2.70229e+06,5.95e+06 L2.70229e+06,5.7316e+06 L2.3662e+06,5.7316e+06"/>
</g>

<g fill="none" stroke="#212121" stroke-opacity="1" stroke-width="0.666667" stroke-linecap="butt" stroke-linejoin="miter" stroke-miterlimit="2" transform="matrix(0.75,0,0,0.75,0,0)"
font-family="Times New Roman" font-size="18" font-weight="400" font-style="normal" 
>
<polyline fill="none" vector-effect="none" points="236.62,595 236.62,573.16 270.229,573.16 270.229,595 " />
</g>

<g fill="#ff00ff" fill-opacity="1" stroke="none" transform="matrix(7.5e-05,0,0,7.5e-05,0,0)"
font-family="Times New Roman" font-size="18" font-weight="400" font-style="normal" 
>
<path vector-effect="none" fill-rule="evenodd" d="M2.78631e+06,1.21404e+06 L2.78631e+06,5.95e+06 L3.1224e+06,5.95e+06 L3.1224e+06,1.21404e+06 L2.78631e+06,1.21404e+06"/>
</g>

<g fill="none" stroke="#212121" stroke-opacity="1" stroke-width="0.666667" stroke-linecap="butt" stroke-linejoin="miter" stroke-miterlimit="2" transform="matrix(0.75,0,0,0.75,0,0)"
font-family="Times New Roman" font-size="18" font-weight="400" font-style="normal" 
>
<polyline fill="none" vector-effect="none" points="278.631,595 278.631,121.404 312.24,121.404 312.24,595 " />
</g>

<g fill="#000000" fill-opacity="1" stroke="#000000" stroke-opacity="1" stroke-width="1" stroke-linecap="square" stroke-linejoin="bevel" transform="matrix(0.75,0,0,0.75,125.407,407.426)"
font-family="Times New Roman" font-size="18" font-weight="700" font-style="normal" 
>
<text fill="#000000" fill-opacity="1" stroke="none" xml:space="preserve" x="0" y="0" font-family="Times New Roman" font-size="18" font-weight="700" font-style="normal" 
 >8.1e+02</text>
</g>

<g fill="#000000" fill-opacity="1" stroke="#000000" stroke-opacity="1" stroke-width="1" stroke-linecap="square" stroke-linejoin="bevel" transform="matrix(0.75,0,0,0.75,167.943,415.238)"
font-family="Times New Roman" font-size="18" font-weight="700" font-style="normal" 
>
<text fill="#000000" fill-opacity="1" stroke="none" xml:space="preserve" x="0" y="0" font-family="Times New Roman" font-size="18" font-weight="700" font-style="normal" 
 >5.5e+02</text>
</g>

<g fill="#000000" fill-opacity="1" stroke="#000000" stroke-opacity="1" stroke-width="1" stroke-linecap="square" stroke-linejoin="bevel" transform="matrix(0.75,0,0,0.75,210.48,76.4204)"
font-family="Times New Roman" font-size="18" font-weight="700" font-style="normal" 
>
<text fill="#000000" fill-opacity="1" stroke="none" xml:space="preserve" x="0" y="0" font-family="Times New Roman" font-size="18" font-weight="700" font-style="normal" 
 >1.2e+04</text>
</g>

<g fill="#dd5400" fill-opacity="1" stroke="#dd5400" stroke-opacity="1" stroke-width="0.666667" stroke-linecap="butt" stroke-linejoin="round" transform="matrix(0.75,0,0,0.75,0,0)"
font-family="Times New Roman" font-size="18" font-weight="700" font-style="normal" 
>
<polyline fill="none" vector-effect="none" points="161,595 913,595 " />
</g>

<g fill="#0000ff" fill-opacity="1" stroke="none" transform="matrix(7.5e-05,0,0,7.5e-05,0,0)"
font-family="Times New Roman" font-size="18" font-weight="700" font-style="normal" 
>
<path vector-effect="none" fill-rule="evenodd" d="M3.83659e+06,4.72303e+06 L3.83659e+06,5.95e+06 L4.17268e+06,5.95e+06 L4.17268e+06,4.72303e+06 L3.83659e+06,4.72303e+06"/>
</g>

<g fill="#0000ff" fill-opacity="1" stroke="none" transform="matrix(7.5e-05,0,0,7.5e-05,0,0)"
font-family="Times New Roman" font-size="18" font-weight="700" font-style="normal" 
>
<path vector-effect="none" fill-rule="evenodd" d="M5.72709e+06,4.91408e+06 L5.72709e+06,5.95e+06 L6.06318e+06,5.95e+06 L6.06318e+06,4.91408e+06 L5.72709e+06,4.91408e+06"/>
</g>

<g fill="#0000ff" fill-opacity="1" stroke="none" transform="matrix(7.5e-05,0,0,7.5e-05,0,0)"
font-family="Times New Roman" font-size="18" font-weight="700" font-style="normal" 
>
<path vector-effect="none" fill-rule="evenodd" d="M7.6176e+06,5.80262e+06 L7.6176e+06,5.95e+06 L7.95369e+06,5.95e+06 L7.95369e+06,5.80262e+06 L7.6176e+06,5.80262e+06"/>
</g>

<g fill="none" stroke="#212121" stroke-opacity="1" stroke-width="0.666667" stroke-linecap="butt" stroke-linejoin="miter" stroke-miterlimit="2" transform="matrix(0.75,0,0,0.75,0,0)"
font-family="Times New Roman" font-size="18" font-weight="700" font-style="normal" 
>
<polyline fill="none" vector-effect="none" points="383.659,595 383.659,472.303 417.268,472.303 417.268,595 " />
<polyline fill="none" vector-effect="none" points="572.709,595 572.709,491.408 606.318,491.408 606.318,595 " />
<polyline fill="none" vector-effect="none" points="761.76,595 761.76,580.262 795.369,580.262 795.369,595 " />
</g>

<g fill="#00ffff" fill-opacity="1" stroke="none" transform="matrix(7.5e-05,0,0,7.5e-05,0,0)"
font-family="Times New Roman" font-size="18" font-weight="700" font-style="normal" 
>
<path vector-effect="none" fill-rule="evenodd" d="M4.2567e+06,4.94038e+06 L4.2567e+06,5.95e+06 L4.59279e+06,5.95e+06 L4.59279e+06,4.94038e+06 L4.2567e+06,4.94038e+06"/>
</g>

<g fill="#00ffff" fill-opacity="1" stroke="none" transform="matrix(7.5e-05,0,0,7.5e-05,0,0)"
font-family="Times New Roman" font-size="18" font-weight="700" font-style="normal" 
>
<path vector-effect="none" fill-rule="evenodd" d="M6.14721e+06,5.23659e+06 L6.14721e+06,5.95e+06 L6.4833e+06,5.95e+06 L6.4833e+06,5.23659e+06 L6.14721e+06,5.23659e+06"/>
</g>

<g fill="#00ffff" fill-opacity="1" stroke="none" transform="matrix(7.5e-05,0,0,7.5e-05,0,0)"
font-family="Times New Roman" font-size="18" font-weight="700" font-style="normal" 
>
<path vector-effect="none" fill-rule="evenodd" d="M8.03771e+06,5.84939e+06 L8.03771e+06,5.95e+06 L8.3738e+06,5.95e+06 L8.3738e+06,5.84939e+06 L8.03771e+06,5.84939e+06"/>
</g>

<g fill="none" stroke="#212121" stroke-opacity="1" stroke-width="0.666667" stroke-linecap="butt" stroke-linejoin="miter" stroke-miterlimit="2" transform="matrix(0.75,0,0,0.75,0,0)"
font-family="Times New Roman" font-size="18" font-weight="700" font-style="normal" 
>
<polyline fill="none" vector-effect="none" points="425.67,595 425.67,494.038 459.279,494.038 459.279,595 " />
<polyline fill="none" vector-effect="none" points="614.721,595 614.721,523.659 648.33,523.659 648.33,595 " />
<polyline fill="none" vector-effect="none" points="803.771,595 803.771,584.939 837.38,584.939 837.38,595 " />
</g>

<g fill="#ff00ff" fill-opacity="1" stroke="none" transform="matrix(7.5e-05,0,0,7.5e-05,0,0)"
font-family="Times New Roman" font-size="18" font-weight="700" font-style="normal" 
>
<path vector-effect="none" fill-rule="evenodd" d="M4.67682e+06,1.24846e+06 L4.67682e+06,5.95e+06 L5.01291e+06,5.95e+06 L5.01291e+06,1.24846e+06 L4.67682e+06,1.24846e+06"/>
</g>

<g fill="#ff00ff" fill-opacity="1" stroke="none" transform="matrix(7.5e-05,0,0,7.5e-05,0,0)"
font-family="Times New Roman" font-size="18" font-weight="700" font-style="normal" 
>
<path vector-effect="none" fill-rule="evenodd" d="M6.56732e+06,1.5832e+06 L6.56732e+06,5.95e+06 L6.90341e+06,5.95e+06 L6.90341e+06,1.5832e+06 L6.56732e+06,1.5832e+06"/>
</g>

<g fill="#ff00ff" fill-opacity="1" stroke="none" transform="matrix(7.5e-05,0,0,7.5e-05,0,0)"
font-family="Times New Roman" font-size="18" font-weight="700" font-style="normal" 
>
<path vector-effect="none" fill-rule="evenodd" d="M8.45782e+06,5.33236e+06 L8.45782e+06,5.95e+06 L8.79391e+06,5.95e+06 L8.79391e+06,5.33236e+06 L8.45782e+06,5.33236e+06"/>
</g>

<g fill="none" stroke="#212121" stroke-opacity="1" stroke-width="0.666667" stroke-linecap="butt" stroke-linejoin="miter" stroke-miterlimit="2" transform="matrix(0.75,0,0,0.75,0,0)"
font-family="Times New Roman" font-size="18" font-weight="700" font-style="normal" 
>
<polyline fill="none" vector-effect="none" points="467.682,595 467.682,124.846 501.291,124.846 501.291,595 " />
<polyline fill="none" vector-effect="none" points="656.732,595 656.732,158.32 690.341,158.32 690.341,595 " />
<polyline fill="none" vector-effect="none" points="845.782,595 845.782,533.236 879.391,533.236 879.391,595 " />
</g>

<g fill="#000000" fill-opacity="1" stroke="#000000" stroke-opacity="1" stroke-width="1" stroke-linecap="square" stroke-linejoin="bevel" transform="matrix(0.75,0,0,0.75,273.945,339.595)"
font-family="Times New Roman" font-size="18" font-weight="700" font-style="normal" 
>
<text fill="#000000" fill-opacity="1" stroke="none" xml:space="preserve" x="0" y="0" font-family="Times New Roman" font-size="18" font-weight="700" font-style="normal" 
 >28.48</text>
</g>

<g fill="#000000" fill-opacity="1" stroke="#000000" stroke-opacity="1" stroke-width="1" stroke-linecap="square" stroke-linejoin="bevel" transform="matrix(0.75,0,0,0.75,316.481,355.896)"
font-family="Times New Roman" font-size="18" font-weight="700" font-style="normal" 
>
<text fill="#000000" fill-opacity="1" stroke="none" xml:space="preserve" x="0" y="0" font-family="Times New Roman" font-size="18" font-weight="700" font-style="normal" 
 >23.43</text>
</g>

<g fill="#000000" fill-opacity="1" stroke="#000000" stroke-opacity="1" stroke-width="1" stroke-linecap="square" stroke-linejoin="bevel" transform="matrix(0.75,0,0,0.75,355.642,79.0023)"
font-family="Times New Roman" font-size="18" font-weight="700" font-style="normal" 
>
<text fill="#000000" fill-opacity="1" stroke="none" xml:space="preserve" x="0" y="0" font-family="Times New Roman" font-size="18" font-weight="700" font-style="normal" 
 >109.13</text>
</g>

<g fill="#000000" fill-opacity="1" stroke="#000000" stroke-opacity="1" stroke-width="1" stroke-linecap="square" stroke-linejoin="bevel" transform="matrix(0.75,0,0,0.75,415.733,353.924)"
font-family="Times New Roman" font-size="18" font-weight="700" font-style="normal" 
>
<text fill="#000000" fill-opacity="1" stroke="none" xml:space="preserve" x="0" y="0" font-family="Times New Roman" font-size="18" font-weight="700" font-style="normal" 
 >24.04</text>
</g>

<g fill="#000000" fill-opacity="1" stroke="#000000" stroke-opacity="1" stroke-width="1" stroke-linecap="square" stroke-linejoin="bevel" transform="matrix(0.75,0,0,0.75,458.269,378.111)"
font-family="Times New Roman" font-size="18" font-weight="700" font-style="normal" 
>
<text fill="#000000" fill-opacity="1" stroke="none" xml:space="preserve" x="0" y="0" font-family="Times New Roman" font-size="18" font-weight="700" font-style="normal" 
 >16.56</text>
</g>

<g fill="#000000" fill-opacity="1" stroke="#000000" stroke-opacity="1" stroke-width="1" stroke-linecap="square" stroke-linejoin="bevel" transform="matrix(0.75,0,0,0.75,497.43,104.107)"
font-family="Times New Roman" font-size="18" font-weight="700" font-style="normal" 
>
<text fill="#000000" fill-opacity="1" stroke="none" xml:space="preserve" x="0" y="0" font-family="Times New Roman" font-size="18" font-weight="700" font-style="normal" 
 >101.36</text>
</g>

<g fill="#000000" fill-opacity="1" stroke="#000000" stroke-opacity="1" stroke-width="1" stroke-linecap="square" stroke-linejoin="bevel" transform="matrix(0.75,0,0,0.75,560.895,420.564)"
font-family="Times New Roman" font-size="18" font-weight="700" font-style="normal" 
>
<text fill="#000000" fill-opacity="1" stroke="none" xml:space="preserve" x="0" y="0" font-family="Times New Roman" font-size="18" font-weight="700" font-style="normal" 
 >3.42</text>
</g>

<g fill="#000000" fill-opacity="1" stroke="#000000" stroke-opacity="1" stroke-width="1" stroke-linecap="square" stroke-linejoin="bevel" transform="matrix(0.75,0,0,0.75,603.432,432.214)"
font-family="Times New Roman" font-size="18" font-weight="700" font-style="normal" 
>
<text fill="#000000" fill-opacity="1" stroke="none" xml:space="preserve" x="0" y="0" font-family="Times New Roman" font-size="18" font-weight="700" font-style="normal" 
 >2.34</text>
</g>

<g fill="#000000" fill-opacity="1" stroke="#000000" stroke-opacity="1" stroke-width="1" stroke-linecap="square" stroke-linejoin="bevel" transform="matrix(0.75,0,0,0.75,642.593,385.294)"
font-family="Times New Roman" font-size="18" font-weight="700" font-style="normal" 
>
<text fill="#000000" fill-opacity="1" stroke="none" xml:space="preserve" x="0" y="0" font-family="Times New Roman" font-size="18" font-weight="700" font-style="normal" 
 >14.34</text>
</g>

<g fill="#212121" fill-opacity="1" stroke="#212121" stroke-opacity="1" stroke-width="1" stroke-linecap="square" stroke-linejoin="bevel" transform="matrix(0.75,0,0,0.75,222.75,34.6125)"
font-family="Times New Roman" font-size="21" font-weight="700" font-style="normal" 
>
<text fill="#212121" fill-opacity="1" stroke="none" xml:space="preserve" x="0" y="0" font-family="Times New Roman" font-size="21" font-weight="700" font-style="normal" 
 >cid660 Side-region Performance Metrics Comparison</text>
</g>

<g fill="#ffffff" fill-opacity="1" stroke="none" transform="matrix(7.5e-05,0,0,7.5e-05,0,0)"
font-family="Times New Roman" font-size="21" font-weight="700" font-style="normal" 
>
<path vector-effect="none" fill-rule="evenodd" d="M6.99e+06,870000 L6.99e+06,1.55e+06 L8.76e+06,1.55e+06 L8.76e+06,870000 L6.99e+06,870000"/>
</g>

<g fill="#0000ff" fill-opacity="1" stroke="none" transform="matrix(7.5e-05,0,0,7.5e-05,0,0)"
font-family="Times New Roman" font-size="21" font-weight="700" font-style="normal" 
>
<path vector-effect="none" fill-rule="evenodd" d="M7.03e+06,916250 L7.03e+06,1.07375e+06 L7.43e+06,1.07375e+06 L7.43e+06,916250 L7.03e+06,916250"/>
</g>

<g fill="none" stroke="#212121" stroke-opacity="1" stroke-width="0.666667" stroke-linecap="butt" stroke-linejoin="miter" stroke-miterlimit="2" transform="matrix(0.75,0,0,0.75,0,0)"
font-family="Times New Roman" font-size="21" font-weight="700" font-style="normal" 
>
<path vector-effect="none" fill-rule="evenodd" d="M703,107.375 L703,91.625 L743,91.625 L743,107.375 L703,107.375"/>
</g>

<g fill="#00ffff" fill-opacity="1" stroke="none" transform="matrix(7.5e-05,0,0,7.5e-05,0,0)"
font-family="Times New Roman" font-size="21" font-weight="700" font-style="normal" 
>
<path vector-effect="none" fill-rule="evenodd" d="M7.03e+06,1.13125e+06 L7.03e+06,1.28875e+06 L7.43e+06,1.28875e+06 L7.43e+06,1.13125e+06 L7.03e+06,1.13125e+06"/>
</g>

<g fill="none" stroke="#212121" stroke-opacity="1" stroke-width="0.666667" stroke-linecap="butt" stroke-linejoin="miter" stroke-miterlimit="2" transform="matrix(0.75,0,0,0.75,0,0)"
font-family="Times New Roman" font-size="21" font-weight="700" font-style="normal" 
>
<path vector-effect="none" fill-rule="evenodd" d="M703,128.875 L703,113.125 L743,113.125 L743,128.875 L703,128.875"/>
</g>

<g fill="#ff00ff" fill-opacity="1" stroke="none" transform="matrix(7.5e-05,0,0,7.5e-05,0,0)"
font-family="Times New Roman" font-size="21" font-weight="700" font-style="normal" 
>
<path vector-effect="none" fill-rule="evenodd" d="M7.03e+06,1.34625e+06 L7.03e+06,1.50375e+06 L7.43e+06,1.50375e+06 L7.43e+06,1.34625e+06 L7.03e+06,1.34625e+06"/>
</g>

<g fill="none" stroke="#212121" stroke-opacity="1" stroke-width="0.666667" stroke-linecap="butt" stroke-linejoin="miter" stroke-miterlimit="2" transform="matrix(0.75,0,0,0.75,0,0)"
font-family="Times New Roman" font-size="21" font-weight="700" font-style="normal" 
>
<path vector-effect="none" fill-rule="evenodd" d="M703,150.375 L703,134.625 L743,134.625 L743,150.375 L703,150.375"/>
</g>

<g fill="#212121" fill-opacity="1" stroke="#212121" stroke-opacity="1" stroke-width="1" stroke-linecap="square" stroke-linejoin="bevel" transform="matrix(0.75,0,0,0.75,559.5,79.5)"
font-family="Times New Roman" font-size="18" font-weight="400" font-style="normal" 
>
<text fill="#212121" fill-opacity="1" stroke="none" xml:space="preserve" x="0" y="0" font-family="Times New Roman" font-size="18" font-weight="400" font-style="normal" 
 >FNN</text>
</g>

<g fill="#212121" fill-opacity="1" stroke="#212121" stroke-opacity="1" stroke-width="1" stroke-linecap="square" stroke-linejoin="bevel" transform="matrix(0.75,0,0,0.75,559.5,95.625)"
font-family="Times New Roman" font-size="18" font-weight="400" font-style="normal" 
>
<text fill="#212121" fill-opacity="1" stroke="none" xml:space="preserve" x="0" y="0" font-family="Times New Roman" font-size="18" font-weight="400" font-style="normal" 
 >GPR</text>
</g>

<g fill="#212121" fill-opacity="1" stroke="#212121" stroke-opacity="1" stroke-width="1" stroke-linecap="square" stroke-linejoin="bevel" transform="matrix(0.75,0,0,0.75,559.5,111.75)"
font-family="Times New Roman" font-size="18" font-weight="400" font-style="normal" 
>
<text fill="#212121" fill-opacity="1" stroke="none" xml:space="preserve" x="0" y="0" font-family="Times New Roman" font-size="18" font-weight="400" font-style="normal" 
 >Farm Estimation</text>
</g>

<g fill="none" stroke="#212121" stroke-opacity="1" stroke-width="0.666667" stroke-linecap="butt" stroke-linejoin="miter" stroke-miterlimit="2" transform="matrix(0.75,0,0,0.75,0,0)"
font-family="Times New Roman" font-size="18" font-weight="400" font-style="normal" 
>
<path vector-effect="none" fill-rule="evenodd" d="M699,155 L699,87 L876,87 L876,155 L699,155"/>
</g>
</g>
</svg>
