<?xml version="1.0" encoding="UTF-8" standalone="no"?>
<svg width="508mm" height="229.306mm"
 viewBox="0 0 1440 650"
 xmlns="http://www.w3.org/2000/svg" xmlns:xlink="http://www.w3.org/1999/xlink"  version="1.2" baseProfile="tiny">
<title>Qt SVG Document</title>
<desc>MATLAB, The MathWorks, Inc. Version 25.1.0.2943329 R2025a</desc>
<defs>
</defs>
<g fill="none" stroke="black" stroke-width="1" fill-rule="evenodd" stroke-linecap="square" stroke-linejoin="bevel" >

<g fill="#ffffff" fill-opacity="1" stroke="none" transform="matrix(0.375,0,0,0.375,0,0)"
font-family="PMingLiU" font-size="9" font-weight="400" font-style="normal" 
>
<path vector-effect="none" fill-rule="evenodd" d="M0,0 L3841,0 L3841,1733 L0,1733 L0,0"/>
</g>

<g fill="#ffffff" fill-opacity="1" stroke="none" transform="matrix(3.75e-05,0,0,3.75e-05,0,0)"
font-family="PMingLiU" font-size="9" font-weight="400" font-style="normal" 
>
<path vector-effect="none" fill-rule="evenodd" d="M5.76e+06,2.08e+06 L5.76e+06,1.593e+07 L3.264e+07,1.593e+07 L3.264e+07,2.08e+06 L5.76e+06,2.08e+06"/>
</g>

<g fill="#212121" fill-opacity="1" stroke="#212121" stroke-opacity="1" stroke-width="1.33333" stroke-linecap="square" stroke-linejoin="round" transform="matrix(0.375,0,0,0.375,0,0)"
font-family="PMingLiU" font-size="9" font-weight="400" font-style="normal" 
>
<polyline fill="none" vector-effect="none" points="576,1593 3264,1593 " />
<polyline fill="none" vector-effect="none" points="906.369,1593 906.369,1566.12 " />
<polyline fill="none" vector-effect="none" points="1582.12,1593 1582.12,1566.12 " />
<polyline fill="none" vector-effect="none" points="2257.88,1593 2257.88,1566.12 " />
<polyline fill="none" vector-effect="none" points="2933.63,1593 2933.63,1566.12 " />
</g>

<g fill="#212121" fill-opacity="1" stroke="#212121" stroke-opacity="1" stroke-width="1" stroke-linecap="square" stroke-linejoin="bevel" transform="matrix(0.375,0,0,0.375,325.451,614.55)"
font-family="Times New Roman" font-size="37" font-weight="400" font-style="normal" 
>
<text fill="#212121" fill-opacity="1" stroke="none" xml:space="preserve" x="0" y="0" font-family="Times New Roman" font-size="37" font-weight="400" font-style="normal" 
 >MSE</text>
</g>

<g fill="#212121" fill-opacity="1" stroke="#212121" stroke-opacity="1" stroke-width="1" stroke-linecap="square" stroke-linejoin="bevel" transform="matrix(0.375,0,0,0.375,574.171,614.55)"
font-family="Times New Roman" font-size="37" font-weight="400" font-style="normal" 
>
<text fill="#212121" fill-opacity="1" stroke="none" xml:space="preserve" x="0" y="0" font-family="Times New Roman" font-size="37" font-weight="400" font-style="normal" 
 >RMSE</text>
</g>

<g fill="#212121" fill-opacity="1" stroke="#212121" stroke-opacity="1" stroke-width="1" stroke-linecap="square" stroke-linejoin="bevel" transform="matrix(0.375,0,0,0.375,831.141,614.55)"
font-family="Times New Roman" font-size="37" font-weight="400" font-style="normal" 
>
<text fill="#212121" fill-opacity="1" stroke="none" xml:space="preserve" x="0" y="0" font-family="Times New Roman" font-size="37" font-weight="400" font-style="normal" 
 >MAE</text>
</g>

<g fill="#212121" fill-opacity="1" stroke="#212121" stroke-opacity="1" stroke-width="1" stroke-linecap="square" stroke-linejoin="bevel" transform="matrix(0.375,0,0,0.375,1080.61,614.55)"
font-family="Times New Roman" font-size="37" font-weight="400" font-style="normal" 
>
<text fill="#212121" fill-opacity="1" stroke="none" xml:space="preserve" x="0" y="0" font-family="Times New Roman" font-size="37" font-weight="400" font-style="normal" 
 >MAPE</text>
</g>

<g fill="#0072bd" fill-opacity="1" stroke="#0072bd" stroke-opacity="1" stroke-width="1" stroke-linecap="square" stroke-linejoin="bevel" transform="matrix(0,-0.375,0.375,0,176.7,353.438)"
font-family="Times New Roman" font-size="41" font-weight="400" font-style="normal" 
>
<text fill="#0072bd" fill-opacity="1" stroke="none" xml:space="preserve" x="0" y="0" font-family="Times New Roman" font-size="41" font-weight="400" font-style="normal" 
 >MSE</text>
</g>

<g fill="#1171be" fill-opacity="1" stroke="#1171be" stroke-opacity="1" stroke-width="1.33333" stroke-linecap="square" stroke-linejoin="round" transform="matrix(0.375,0,0,0.375,0,0)"
font-family="Times New Roman" font-size="41" font-weight="400" font-style="normal" 
>
<polyline fill="none" vector-effect="none" points="576,1593 576,208 " />
<polyline fill="none" vector-effect="none" points="576,1593 602.88,1593 " />
<polyline fill="none" vector-effect="none" points="576,1246.75 602.88,1246.75 " />
<polyline fill="none" vector-effect="none" points="576,900.5 602.88,900.5 " />
<polyline fill="none" vector-effect="none" points="576,554.25 602.88,554.25 " />
<polyline fill="none" vector-effect="none" points="576,208 602.88,208 " />
</g>

<g fill="#1171be" fill-opacity="1" stroke="#1171be" stroke-opacity="1" stroke-width="1" stroke-linecap="square" stroke-linejoin="bevel" transform="matrix(0.375,0,0,0.375,204.075,602.063)"
font-family="Times New Roman" font-size="37" font-weight="400" font-style="normal" 
>
<text fill="#1171be" fill-opacity="1" stroke="none" xml:space="preserve" x="0" y="0" font-family="Times New Roman" font-size="37" font-weight="400" font-style="normal" 
 >0</text>
</g>

<g fill="#1171be" fill-opacity="1" stroke="#1171be" stroke-opacity="1" stroke-width="1" stroke-linecap="square" stroke-linejoin="bevel" transform="matrix(0.375,0,0,0.375,182.7,472.219)"
font-family="Times New Roman" font-size="37" font-weight="400" font-style="normal" 
>
<text fill="#1171be" fill-opacity="1" stroke="none" xml:space="preserve" x="0" y="0" font-family="Times New Roman" font-size="37" font-weight="400" font-style="normal" 
 >2000</text>
</g>

<g fill="#1171be" fill-opacity="1" stroke="#1171be" stroke-opacity="1" stroke-width="1" stroke-linecap="square" stroke-linejoin="bevel" transform="matrix(0.375,0,0,0.375,182.7,342.375)"
font-family="Times New Roman" font-size="37" font-weight="400" font-style="normal" 
>
<text fill="#1171be" fill-opacity="1" stroke="none" xml:space="preserve" x="0" y="0" font-family="Times New Roman" font-size="37" font-weight="400" font-style="normal" 
 >4000</text>
</g>

<g fill="#1171be" fill-opacity="1" stroke="#1171be" stroke-opacity="1" stroke-width="1" stroke-linecap="square" stroke-linejoin="bevel" transform="matrix(0.375,0,0,0.375,182.7,212.531)"
font-family="Times New Roman" font-size="37" font-weight="400" font-style="normal" 
>
<text fill="#1171be" fill-opacity="1" stroke="none" xml:space="preserve" x="0" y="0" font-family="Times New Roman" font-size="37" font-weight="400" font-style="normal" 
 >6000</text>
</g>

<g fill="#1171be" fill-opacity="1" stroke="#1171be" stroke-opacity="1" stroke-width="1" stroke-linecap="square" stroke-linejoin="bevel" transform="matrix(0.375,0,0,0.375,182.7,82.6875)"
font-family="Times New Roman" font-size="37" font-weight="400" font-style="normal" 
>
<text fill="#1171be" fill-opacity="1" stroke="none" xml:space="preserve" x="0" y="0" font-family="Times New Roman" font-size="37" font-weight="400" font-style="normal" 
 >8000</text>
</g>

<g fill="#d95319" fill-opacity="1" stroke="#d95319" stroke-opacity="1" stroke-width="1" stroke-linecap="square" stroke-linejoin="bevel" transform="matrix(0,-0.375,0.375,0,1266.67,404.438)"
font-family="Times New Roman" font-size="41" font-weight="400" font-style="normal" 
>
<text fill="#d95319" fill-opacity="1" stroke="none" xml:space="preserve" x="0" y="0" font-family="Times New Roman" font-size="41" font-weight="400" font-style="normal" 
 >RMSE, MAE, MAPE</text>
</g>

<g fill="#dd5400" fill-opacity="1" stroke="#dd5400" stroke-opacity="1" stroke-width="1.33333" stroke-linecap="square" stroke-linejoin="round" transform="matrix(0.375,0,0,0.375,0,0)"
font-family="Times New Roman" font-size="41" font-weight="400" font-style="normal" 
>
<polyline fill="none" vector-effect="none" points="3264,1593 3264,208 " />
<polyline fill="none" vector-effect="none" points="3264,1593 3237.12,1593 " />
<polyline fill="none" vector-effect="none" points="3264,1316 3237.12,1316 " />
<polyline fill="none" vector-effect="none" points="3264,1039 3237.12,1039 " />
<polyline fill="none" vector-effect="none" points="3264,762 3237.12,762 " />
<polyline fill="none" vector-effect="none" points="3264,485 3237.12,485 " />
<polyline fill="none" vector-effect="none" points="3264,208 3237.12,208 " />
</g>

<g fill="#dd5400" fill-opacity="1" stroke="#dd5400" stroke-opacity="1" stroke-width="1" stroke-linecap="square" stroke-linejoin="bevel" transform="matrix(0.375,0,0,0.375,1228.8,602.063)"
font-family="Times New Roman" font-size="37" font-weight="400" font-style="normal" 
>
<text fill="#dd5400" fill-opacity="1" stroke="none" xml:space="preserve" x="0" y="0" font-family="Times New Roman" font-size="37" font-weight="400" font-style="normal" 
 >0</text>
</g>

<g fill="#dd5400" fill-opacity="1" stroke="#dd5400" stroke-opacity="1" stroke-width="1" stroke-linecap="square" stroke-linejoin="bevel" transform="matrix(0.375,0,0,0.375,1228.8,498.188)"
font-family="Times New Roman" font-size="37" font-weight="400" font-style="normal" 
>
<text fill="#dd5400" fill-opacity="1" stroke="none" xml:space="preserve" x="0" y="0" font-family="Times New Roman" font-size="37" font-weight="400" font-style="normal" 
 >20</text>
</g>

<g fill="#dd5400" fill-opacity="1" stroke="#dd5400" stroke-opacity="1" stroke-width="1" stroke-linecap="square" stroke-linejoin="bevel" transform="matrix(0.375,0,0,0.375,1228.8,394.313)"
font-family="Times New Roman" font-size="37" font-weight="400" font-style="normal" 
>
<text fill="#dd5400" fill-opacity="1" stroke="none" xml:space="preserve" x="0" y="0" font-family="Times New Roman" font-size="37" font-weight="400" font-style="normal" 
 >40</text>
</g>

<g fill="#dd5400" fill-opacity="1" stroke="#dd5400" stroke-opacity="1" stroke-width="1" stroke-linecap="square" stroke-linejoin="bevel" transform="matrix(0.375,0,0,0.375,1228.8,290.438)"
font-family="Times New Roman" font-size="37" font-weight="400" font-style="normal" 
>
<text fill="#dd5400" fill-opacity="1" stroke="none" xml:space="preserve" x="0" y="0" font-family="Times New Roman" font-size="37" font-weight="400" font-style="normal" 
 >60</text>
</g>

<g fill="#dd5400" fill-opacity="1" stroke="#dd5400" stroke-opacity="1" stroke-width="1" stroke-linecap="square" stroke-linejoin="bevel" transform="matrix(0.375,0,0,0.375,1228.8,186.563)"
font-family="Times New Roman" font-size="37" font-weight="400" font-style="normal" 
>
<text fill="#dd5400" fill-opacity="1" stroke="none" xml:space="preserve" x="0" y="0" font-family="Times New Roman" font-size="37" font-weight="400" font-style="normal" 
 >80</text>
</g>

<g fill="#dd5400" fill-opacity="1" stroke="#dd5400" stroke-opacity="1" stroke-width="1" stroke-linecap="square" stroke-linejoin="bevel" transform="matrix(0.375,0,0,0.375,1228.8,82.6875)"
font-family="Times New Roman" font-size="37" font-weight="400" font-style="normal" 
>
<text fill="#dd5400" fill-opacity="1" stroke="none" xml:space="preserve" x="0" y="0" font-family="Times New Roman" font-size="37" font-weight="400" font-style="normal" 
 >100</text>
</g>

<g fill="#1171be" fill-opacity="1" stroke="#1171be" stroke-opacity="1" stroke-width="1.33333" stroke-linecap="butt" stroke-linejoin="round" transform="matrix(0.375,0,0,0.375,0,0)"
font-family="Times New Roman" font-size="37" font-weight="400" font-style="normal" 
>
<polyline fill="none" vector-effect="none" points="576,1593 3264,1593 " />
</g>

<g fill="#0000ff" fill-opacity="1" stroke="none" transform="matrix(3.75e-05,0,0,3.75e-05,0,0)"
font-family="Times New Roman" font-size="37" font-weight="400" font-style="normal" 
>
<path vector-effect="none" fill-rule="evenodd" d="M6.96134e+06,1.34496e+07 L6.96134e+06,1.593e+07 L8.16268e+06,1.593e+07 L8.16268e+06,1.34496e+07 L6.96134e+06,1.34496e+07"/>
</g>

<g fill="none" stroke="#212121" stroke-opacity="1" stroke-width="1.33333" stroke-linecap="butt" stroke-linejoin="miter" stroke-miterlimit="2" transform="matrix(0.375,0,0,0.375,0,0)"
font-family="Times New Roman" font-size="37" font-weight="400" font-style="normal" 
>
<polyline fill="none" vector-effect="none" points="696.134,1593 696.134,1344.96 816.268,1344.96 816.268,1593 " />
</g>

<g fill="#00ffff" fill-opacity="1" stroke="none" transform="matrix(3.75e-05,0,0,3.75e-05,0,0)"
font-family="Times New Roman" font-size="37" font-weight="400" font-style="normal" 
>
<path vector-effect="none" fill-rule="evenodd" d="M8.46302e+06,1.50655e+07 L8.46302e+06,1.593e+07 L9.66436e+06,1.593e+07 L9.66436e+06,1.50655e+07 L8.46302e+06,1.50655e+07"/>
</g>

<g fill="none" stroke="#212121" stroke-opacity="1" stroke-width="1.33333" stroke-linecap="butt" stroke-linejoin="miter" stroke-miterlimit="2" transform="matrix(0.375,0,0,0.375,0,0)"
font-family="Times New Roman" font-size="37" font-weight="400" font-style="normal" 
>
<polyline fill="none" vector-effect="none" points="846.302,1593 846.302,1506.55 966.436,1506.55 966.436,1593 " />
</g>

<g fill="#ff00ff" fill-opacity="1" stroke="none" transform="matrix(3.75e-05,0,0,3.75e-05,0,0)"
font-family="Times New Roman" font-size="37" font-weight="400" font-style="normal" 
>
<path vector-effect="none" fill-rule="evenodd" d="M9.96469e+06,3.85775e+06 L9.96469e+06,1.593e+07 L1.1166e+07,1.593e+07 L1.1166e+07,3.85775e+06 L9.96469e+06,3.85775e+06"/>
</g>

<g fill="none" stroke="#212121" stroke-opacity="1" stroke-width="1.33333" stroke-linecap="butt" stroke-linejoin="miter" stroke-miterlimit="2" transform="matrix(0.375,0,0,0.375,0,0)"
font-family="Times New Roman" font-size="37" font-weight="400" font-style="normal" 
>
<polyline fill="none" vector-effect="none" points="996.469,1593 996.469,385.775 1116.6,385.775 1116.6,1593 " />
</g>

<g fill="#000000" fill-opacity="1" stroke="#000000" stroke-opacity="1" stroke-width="1" stroke-linecap="square" stroke-linejoin="bevel" transform="matrix(0.375,0,0,0.375,240.991,485.779)"
font-family="Times New Roman" font-size="37" font-weight="700" font-style="normal" 
>
<text fill="#000000" fill-opacity="1" stroke="none" xml:space="preserve" x="0" y="0" font-family="Times New Roman" font-size="37" font-weight="700" font-style="normal" 
 >1.4e+03</text>
</g>

<g fill="#000000" fill-opacity="1" stroke="#000000" stroke-opacity="1" stroke-width="1" stroke-linecap="square" stroke-linejoin="bevel" transform="matrix(0.375,0,0,0.375,317.013,546.376)"
font-family="Times New Roman" font-size="37" font-weight="700" font-style="normal" 
>
<text fill="#000000" fill-opacity="1" stroke="none" xml:space="preserve" x="0" y="0" font-family="Times New Roman" font-size="37" font-weight="700" font-style="normal" 
 >5.0e+02</text>
</g>

<g fill="#000000" fill-opacity="1" stroke="#000000" stroke-opacity="1" stroke-width="1" stroke-linecap="square" stroke-linejoin="bevel" transform="matrix(0.375,0,0,0.375,393.036,126.084)"
font-family="Times New Roman" font-size="37" font-weight="700" font-style="normal" 
>
<text fill="#000000" fill-opacity="1" stroke="none" xml:space="preserve" x="0" y="0" font-family="Times New Roman" font-size="37" font-weight="700" font-style="normal" 
 >7.0e+03</text>
</g>

<g fill="#dd5400" fill-opacity="1" stroke="#dd5400" stroke-opacity="1" stroke-width="1.33333" stroke-linecap="butt" stroke-linejoin="round" transform="matrix(0.375,0,0,0.375,0,0)"
font-family="Times New Roman" font-size="37" font-weight="700" font-style="normal" 
>
<polyline fill="none" vector-effect="none" points="576,1593 3264,1593 " />
</g>

<g fill="#0000ff" fill-opacity="1" stroke="none" transform="matrix(3.75e-05,0,0,3.75e-05,0,0)"
font-family="Times New Roman" font-size="37" font-weight="700" font-style="normal" 
>
<path vector-effect="none" fill-rule="evenodd" d="M1.37189e+07,1.06876e+07 L1.37189e+07,1.593e+07 L1.49202e+07,1.593e+07 L1.49202e+07,1.06876e+07 L1.37189e+07,1.06876e+07"/>
</g>

<g fill="#0000ff" fill-opacity="1" stroke="none" transform="matrix(3.75e-05,0,0,3.75e-05,0,0)"
font-family="Times New Roman" font-size="37" font-weight="700" font-style="normal" 
>
<path vector-effect="none" fill-rule="evenodd" d="M2.04764e+07,1.21969e+07 L2.04764e+07,1.593e+07 L2.16778e+07,1.593e+07 L2.16778e+07,1.21969e+07 L2.04764e+07,1.21969e+07"/>
</g>

<g fill="#0000ff" fill-opacity="1" stroke="none" transform="matrix(3.75e-05,0,0,3.75e-05,0,0)"
font-family="Times New Roman" font-size="37" font-weight="700" font-style="normal" 
>
<path vector-effect="none" fill-rule="evenodd" d="M2.7234e+07,1.53788e+07 L2.7234e+07,1.593e+07 L2.84353e+07,1.593e+07 L2.84353e+07,1.53788e+07 L2.7234e+07,1.53788e+07"/>
</g>

<g fill="none" stroke="#212121" stroke-opacity="1" stroke-width="1.33333" stroke-linecap="butt" stroke-linejoin="miter" stroke-miterlimit="2" transform="matrix(0.375,0,0,0.375,0,0)"
font-family="Times New Roman" font-size="37" font-weight="700" font-style="normal" 
>
<polyline fill="none" vector-effect="none" points="1371.89,1593 1371.89,1068.76 1492.02,1068.76 1492.02,1593 " />
<polyline fill="none" vector-effect="none" points="2047.64,1593 2047.64,1219.69 2167.78,1219.69 2167.78,1593 " />
<polyline fill="none" vector-effect="none" points="2723.4,1593 2723.4,1537.88 2843.53,1537.88 2843.53,1593 " />
</g>

<g fill="#00ffff" fill-opacity="1" stroke="none" transform="matrix(3.75e-05,0,0,3.75e-05,0,0)"
font-family="Times New Roman" font-size="37" font-weight="700" font-style="normal" 
>
<path vector-effect="none" fill-rule="evenodd" d="M1.52206e+07,1.28351e+07 L1.52206e+07,1.593e+07 L1.64219e+07,1.593e+07 L1.64219e+07,1.28351e+07 L1.52206e+07,1.28351e+07"/>
</g>

<g fill="#00ffff" fill-opacity="1" stroke="none" transform="matrix(3.75e-05,0,0,3.75e-05,0,0)"
font-family="Times New Roman" font-size="37" font-weight="700" font-style="normal" 
>
<path vector-effect="none" fill-rule="evenodd" d="M2.19781e+07,1.34289e+07 L2.19781e+07,1.593e+07 L2.31794e+07,1.593e+07 L2.31794e+07,1.34289e+07 L2.19781e+07,1.34289e+07"/>
</g>

<g fill="#00ffff" fill-opacity="1" stroke="none" transform="matrix(3.75e-05,0,0,3.75e-05,0,0)"
font-family="Times New Roman" font-size="37" font-weight="700" font-style="normal" 
>
<path vector-effect="none" fill-rule="evenodd" d="M2.87356e+07,1.55501e+07 L2.87356e+07,1.593e+07 L2.9937e+07,1.593e+07 L2.9937e+07,1.55501e+07 L2.87356e+07,1.55501e+07"/>
</g>

<g fill="none" stroke="#212121" stroke-opacity="1" stroke-width="1.33333" stroke-linecap="butt" stroke-linejoin="miter" stroke-miterlimit="2" transform="matrix(0.375,0,0,0.375,0,0)"
font-family="Times New Roman" font-size="37" font-weight="700" font-style="normal" 
>
<polyline fill="none" vector-effect="none" points="1522.06,1593 1522.06,1283.51 1642.19,1283.51 1642.19,1593 " />
<polyline fill="none" vector-effect="none" points="2197.81,1593 2197.81,1342.89 2317.94,1342.89 2317.94,1593 " />
<polyline fill="none" vector-effect="none" points="2873.56,1593 2873.56,1555.01 2993.7,1555.01 2993.7,1593 " />
</g>

<g fill="#ff00ff" fill-opacity="1" stroke="none" transform="matrix(3.75e-05,0,0,3.75e-05,0,0)"
font-family="Times New Roman" font-size="37" font-weight="700" font-style="normal" 
>
<path vector-effect="none" fill-rule="evenodd" d="M1.67222e+07,4.36451e+06 L1.67222e+07,1.593e+07 L1.79236e+07,1.593e+07 L1.79236e+07,4.36451e+06 L1.67222e+07,4.36451e+06"/>
</g>

<g fill="#ff00ff" fill-opacity="1" stroke="none" transform="matrix(3.75e-05,0,0,3.75e-05,0,0)"
font-family="Times New Roman" font-size="37" font-weight="700" font-style="normal" 
>
<path vector-effect="none" fill-rule="evenodd" d="M2.34798e+07,5.83929e+06 L2.34798e+07,1.593e+07 L2.46811e+07,1.593e+07 L2.46811e+07,5.83929e+06 L2.34798e+07,5.83929e+06"/>
</g>

<g fill="#ff00ff" fill-opacity="1" stroke="none" transform="matrix(3.75e-05,0,0,3.75e-05,0,0)"
font-family="Times New Roman" font-size="37" font-weight="700" font-style="normal" 
>
<path vector-effect="none" fill-rule="evenodd" d="M3.02373e+07,1.44174e+07 L3.02373e+07,1.593e+07 L3.14387e+07,1.593e+07 L3.14387e+07,1.44174e+07 L3.02373e+07,1.44174e+07"/>
</g>

<g fill="none" stroke="#212121" stroke-opacity="1" stroke-width="1.33333" stroke-linecap="butt" stroke-linejoin="miter" stroke-miterlimit="2" transform="matrix(0.375,0,0,0.375,0,0)"
font-family="Times New Roman" font-size="37" font-weight="700" font-style="normal" 
>
<polyline fill="none" vector-effect="none" points="1672.22,1593 1672.22,436.451 1792.36,436.451 1792.36,1593 " />
<polyline fill="none" vector-effect="none" points="2347.98,1593 2347.98,583.929 2468.11,583.929 2468.11,1593 " />
<polyline fill="none" vector-effect="none" points="3023.73,1593 3023.73,1441.74 3143.87,1441.74 3143.87,1593 " />
</g>

<g fill="#000000" fill-opacity="1" stroke="#000000" stroke-opacity="1" stroke-width="1" stroke-linecap="square" stroke-linejoin="bevel" transform="matrix(0.375,0,0,0.375,501.336,382.204)"
font-family="Times New Roman" font-size="37" font-weight="700" font-style="normal" 
>
<text fill="#000000" fill-opacity="1" stroke="none" xml:space="preserve" x="0" y="0" font-family="Times New Roman" font-size="37" font-weight="700" font-style="normal" 
 >37.85</text>
</g>

<g fill="#000000" fill-opacity="1" stroke="#000000" stroke-opacity="1" stroke-width="1" stroke-linecap="square" stroke-linejoin="bevel" transform="matrix(0.375,0,0,0.375,577.359,462.734)"
font-family="Times New Roman" font-size="37" font-weight="700" font-style="normal" 
>
<text fill="#000000" fill-opacity="1" stroke="none" xml:space="preserve" x="0" y="0" font-family="Times New Roman" font-size="37" font-weight="700" font-style="normal" 
 >22.35</text>
</g>

<g fill="#000000" fill-opacity="1" stroke="#000000" stroke-opacity="1" stroke-width="1" stroke-linecap="square" stroke-linejoin="bevel" transform="matrix(0.375,0,0,0.375,653.381,145.088)"
font-family="Times New Roman" font-size="37" font-weight="700" font-style="normal" 
>
<text fill="#000000" fill-opacity="1" stroke="none" xml:space="preserve" x="0" y="0" font-family="Times New Roman" font-size="37" font-weight="700" font-style="normal" 
 >83.51</text>
</g>

<g fill="#000000" fill-opacity="1" stroke="#000000" stroke-opacity="1" stroke-width="1" stroke-linecap="square" stroke-linejoin="bevel" transform="matrix(0.375,0,0,0.375,754.744,438.804)"
font-family="Times New Roman" font-size="37" font-weight="700" font-style="normal" 
>
<text fill="#000000" fill-opacity="1" stroke="none" xml:space="preserve" x="0" y="0" font-family="Times New Roman" font-size="37" font-weight="700" font-style="normal" 
 >26.95</text>
</g>

<g fill="#000000" fill-opacity="1" stroke="#000000" stroke-opacity="1" stroke-width="1" stroke-linecap="square" stroke-linejoin="bevel" transform="matrix(0.375,0,0,0.375,830.766,485.002)"
font-family="Times New Roman" font-size="37" font-weight="700" font-style="normal" 
>
<text fill="#000000" fill-opacity="1" stroke="none" xml:space="preserve" x="0" y="0" font-family="Times New Roman" font-size="37" font-weight="700" font-style="normal" 
 >18.06</text>
</g>

<g fill="#000000" fill-opacity="1" stroke="#000000" stroke-opacity="1" stroke-width="1" stroke-linecap="square" stroke-linejoin="bevel" transform="matrix(0.375,0,0,0.375,906.789,200.392)"
font-family="Times New Roman" font-size="37" font-weight="700" font-style="normal" 
>
<text fill="#000000" fill-opacity="1" stroke="none" xml:space="preserve" x="0" y="0" font-family="Times New Roman" font-size="37" font-weight="700" font-style="normal" 
 >72.86</text>
</g>

<g fill="#000000" fill-opacity="1" stroke="#000000" stroke-opacity="1" stroke-width="1" stroke-linecap="square" stroke-linejoin="bevel" transform="matrix(0.375,0,0,0.375,1011.71,558.124)"
font-family="Times New Roman" font-size="37" font-weight="700" font-style="normal" 
>
<text fill="#000000" fill-opacity="1" stroke="none" xml:space="preserve" x="0" y="0" font-family="Times New Roman" font-size="37" font-weight="700" font-style="normal" 
 >3.98</text>
</g>

<g fill="#000000" fill-opacity="1" stroke="#000000" stroke-opacity="1" stroke-width="1" stroke-linecap="square" stroke-linejoin="bevel" transform="matrix(0.375,0,0,0.375,1087.74,575.454)"
font-family="Times New Roman" font-size="37" font-weight="700" font-style="normal" 
>
<text fill="#000000" fill-opacity="1" stroke="none" xml:space="preserve" x="0" y="0" font-family="Times New Roman" font-size="37" font-weight="700" font-style="normal" 
 >2.74</text>
</g>

<g fill="#000000" fill-opacity="1" stroke="#000000" stroke-opacity="1" stroke-width="1" stroke-linecap="square" stroke-linejoin="bevel" transform="matrix(0.375,0,0,0.375,1160.2,522.071)"
font-family="Times New Roman" font-size="37" font-weight="700" font-style="normal" 
>
<text fill="#000000" fill-opacity="1" stroke="none" xml:space="preserve" x="0" y="0" font-family="Times New Roman" font-size="37" font-weight="700" font-style="normal" 
 >10.92</text>
</g>

<g fill="#212121" fill-opacity="1" stroke="#212121" stroke-opacity="1" stroke-width="1" stroke-linecap="square" stroke-linejoin="bevel" transform="matrix(0.375,0,0,0.375,532.313,47.9063)"
font-family="Times New Roman" font-size="42" font-weight="700" font-style="normal" 
>
<text fill="#212121" fill-opacity="1" stroke="none" xml:space="preserve" x="0" y="0" font-family="Times New Roman" font-size="42" font-weight="700" font-style="normal" 
 >cid700 Dorsal-region Performance Metrics Comparison</text>
</g>

<g fill="#ffffff" fill-opacity="1" stroke="none" transform="matrix(3.75e-05,0,0,3.75e-05,0,0)"
font-family="Times New Roman" font-size="42" font-weight="700" font-style="normal" 
>
<path vector-effect="none" fill-rule="evenodd" d="M2.863e+07,2.4e+06 L2.863e+07,3.73e+06 L3.216e+07,3.73e+06 L3.216e+07,2.4e+06 L2.863e+07,2.4e+06"/>
</g>

<g fill="#0000ff" fill-opacity="1" stroke="none" transform="matrix(3.75e-05,0,0,3.75e-05,0,0)"
font-family="Times New Roman" font-size="42" font-weight="700" font-style="normal" 
>
<path vector-effect="none" fill-rule="evenodd" d="M2.871e+07,2.49125e+06 L2.871e+07,2.79875e+06 L2.951e+07,2.79875e+06 L2.951e+07,2.49125e+06 L2.871e+07,2.49125e+06"/>
</g>

<g fill="none" stroke="#212121" stroke-opacity="1" stroke-width="1.33333" stroke-linecap="butt" stroke-linejoin="miter" stroke-miterlimit="2" transform="matrix(0.375,0,0,0.375,0,0)"
font-family="Times New Roman" font-size="42" font-weight="700" font-style="normal" 
>
<path vector-effect="none" fill-rule="evenodd" d="M2871,279.875 L2871,249.125 L2951,249.125 L2951,279.875 L2871,279.875"/>
</g>

<g fill="#00ffff" fill-opacity="1" stroke="none" transform="matrix(3.75e-05,0,0,3.75e-05,0,0)"
font-family="Times New Roman" font-size="42" font-weight="700" font-style="normal" 
>
<path vector-effect="none" fill-rule="evenodd" d="M2.871e+07,2.91125e+06 L2.871e+07,3.21875e+06 L2.951e+07,3.21875e+06 L2.951e+07,2.91125e+06 L2.871e+07,2.91125e+06"/>
</g>

<g fill="none" stroke="#212121" stroke-opacity="1" stroke-width="1.33333" stroke-linecap="butt" stroke-linejoin="miter" stroke-miterlimit="2" transform="matrix(0.375,0,0,0.375,0,0)"
font-family="Times New Roman" font-size="42" font-weight="700" font-style="normal" 
>
<path vector-effect="none" fill-rule="evenodd" d="M2871,321.875 L2871,291.125 L2951,291.125 L2951,321.875 L2871,321.875"/>
</g>

<g fill="#ff00ff" fill-opacity="1" stroke="none" transform="matrix(3.75e-05,0,0,3.75e-05,0,0)"
font-family="Times New Roman" font-size="42" font-weight="700" font-style="normal" 
>
<path vector-effect="none" fill-rule="evenodd" d="M2.871e+07,3.33125e+06 L2.871e+07,3.63875e+06 L2.951e+07,3.63875e+06 L2.951e+07,3.33125e+06 L2.871e+07,3.33125e+06"/>
</g>

<g fill="none" stroke="#212121" stroke-opacity="1" stroke-width="1.33333" stroke-linecap="butt" stroke-linejoin="miter" stroke-miterlimit="2" transform="matrix(0.375,0,0,0.375,0,0)"
font-family="Times New Roman" font-size="42" font-weight="700" font-style="normal" 
>
<path vector-effect="none" fill-rule="evenodd" d="M2871,363.875 L2871,333.125 L2951,333.125 L2951,363.875 L2871,363.875"/>
</g>

<g fill="#212121" fill-opacity="1" stroke="#212121" stroke-opacity="1" stroke-width="1" stroke-linecap="square" stroke-linejoin="bevel" transform="matrix(0.375,0,0,0.375,1108.88,103.875)"
font-family="Times New Roman" font-size="37" font-weight="400" font-style="normal" 
>
<text fill="#212121" fill-opacity="1" stroke="none" xml:space="preserve" x="0" y="0" font-family="Times New Roman" font-size="37" font-weight="400" font-style="normal" 
 >FNN</text>
</g>

<g fill="#212121" fill-opacity="1" stroke="#212121" stroke-opacity="1" stroke-width="1" stroke-linecap="square" stroke-linejoin="bevel" transform="matrix(0.375,0,0,0.375,1108.88,119.625)"
font-family="Times New Roman" font-size="37" font-weight="400" font-style="normal" 
>
<text fill="#212121" fill-opacity="1" stroke="none" xml:space="preserve" x="0" y="0" font-family="Times New Roman" font-size="37" font-weight="400" font-style="normal" 
 >GPR</text>
</g>

<g fill="#212121" fill-opacity="1" stroke="#212121" stroke-opacity="1" stroke-width="1" stroke-linecap="square" stroke-linejoin="bevel" transform="matrix(0.375,0,0,0.375,1108.88,135.375)"
font-family="Times New Roman" font-size="37" font-weight="400" font-style="normal" 
>
<text fill="#212121" fill-opacity="1" stroke="none" xml:space="preserve" x="0" y="0" font-family="Times New Roman" font-size="37" font-weight="400" font-style="normal" 
 >Farm Estimation</text>
</g>

<g fill="none" stroke="#212121" stroke-opacity="1" stroke-width="1.33333" stroke-linecap="butt" stroke-linejoin="miter" stroke-miterlimit="2" transform="matrix(0.375,0,0,0.375,0,0)"
font-family="Times New Roman" font-size="37" font-weight="400" font-style="normal" 
>
<path vector-effect="none" fill-rule="evenodd" d="M2863,373 L2863,240 L3216,240 L3216,373 L2863,373"/>
</g>
</g>
</svg>
